<svg width="18" height="31" viewBox="0 0 18 31" fill="none" xmlns="http://www.w3.org/2000/svg">
<path d="M13.6125 30.2411L0.755352 17.3243C0.249102 16.8238 -1.71462e-06 16.1618 -1.72252e-06 15.4998C-1.73041e-06 14.8378 0.251114 14.1774 0.753348 13.6737L13.6105 0.756846C14.615 -0.252282 16.2422 -0.252282 17.2467 0.756846C18.2511 1.76597 18.2511 3.40076 17.2467 4.40989L11.0809 10.601C10.2284 11.457 10.8347 12.9164 12.0428 12.9164C13.4643 12.9164 14.5419 14.0733 14.5419 15.4271C14.5419 16.781 13.4643 18.0832 12.0428 18.0832C10.8344 18.0832 10.2279 19.5428 11.0803 20.3992L17.2446 26.5921C18.2491 27.6013 18.2491 29.236 17.2446 30.2452C16.2402 31.2543 14.617 31.2503 13.6125 30.2411Z" fill="white"/>
</svg>
